# xmcd
#
# Track frame offsets:
#	150
#	12542
#	26720
#	37303
#	49775
#	67528
#	79361
#	90099
#	104487
#	122398
#	138519
#	155355
#
# Disc length: 2295 seconds
# Revision: 0
# Processed by: cddbd v1.5.2PL0 Copyright (c) Steve Scherf et al.
# Submitted via: dBpowerAMP V12.0
#
DISCID=9408f50c
DTITLE=Omar and the Howlers - Too Much is not Enough
DYEAR=2012
DGENRE=Blues
TTITLE0=Too Much
TTITLE1=I Gotta Let You Go
TTITLE2=Honest I Do
TTITLE3=I Ain't Got You
TTITLE4=High and Lonesome
TTITLE5=Going to New York
TTITLE6=Roll in Rhumba
TTITLE7=Take Out Some Insurance
TTITLE8=I'm Gonna Move to the Outskirts of Town
TTITLE9=I'm Gonna Ruin You
TTITLE10=Shame, Shame, Shame
TTITLE11=You Don't Have to Go
EXTD=
EXTT0=
EXTT1=
EXTT2=
EXTT3=
EXTT4=
EXTT5=
EXTT6=
EXTT7=
EXTT8=
EXTT9=
EXTT10=
EXTT11=
PLAYORDER=
